<svg width="581" height="344" viewBox="0 0 581 344" fill="none" xmlns="http://www.w3.org/2000/svg">
<rect width="581" height="344" fill="white"/>
<path d="M230.435 194V148.56H247.907C252.942 148.56 257.145 149.584 260.515 151.632C263.929 153.637 266.489 156.368 268.195 159.824C269.945 163.237 270.819 167.035 270.819 171.216C270.819 175.824 269.859 179.835 267.939 183.248C266.062 186.661 263.395 189.307 259.939 191.184C256.526 193.061 252.515 194 247.907 194H230.435ZM258.147 171.216C258.147 168.869 257.742 166.821 256.931 165.072C256.121 163.28 254.947 161.893 253.411 160.912C251.875 159.931 250.041 159.44 247.907 159.44H242.915V183.12H247.907C250.083 183.12 251.918 182.608 253.411 181.584C254.947 180.56 256.121 179.152 256.931 177.36C257.742 175.525 258.147 173.477 258.147 171.216ZM276.248 194V148.56H288.728V183.12H309.336V194H276.248ZM310.627 170.896C310.627 168.123 311.139 165.413 312.163 162.768C313.229 160.08 314.765 157.648 316.771 155.472C318.776 153.296 321.208 151.568 324.067 150.288C326.968 148.965 330.232 148.304 333.859 148.304C338.211 148.304 342.008 149.221 345.251 151.056C348.493 152.848 350.904 155.237 352.483 158.224L342.947 165.008C342.392 163.515 341.581 162.363 340.515 161.552C339.491 160.741 338.36 160.187 337.123 159.888C335.928 159.547 334.755 159.376 333.603 159.376C331.811 159.376 330.253 159.739 328.931 160.464C327.651 161.147 326.584 162.064 325.731 163.216C324.92 164.368 324.301 165.648 323.875 167.056C323.491 168.464 323.299 169.872 323.299 171.28C323.299 172.859 323.533 174.373 324.003 175.824C324.472 177.275 325.155 178.576 326.051 179.728C326.947 180.837 328.035 181.712 329.315 182.352C330.637 182.992 332.109 183.312 333.731 183.312C334.883 183.312 336.056 183.141 337.251 182.8C338.445 182.416 339.533 181.819 340.515 181.008C341.496 180.197 342.243 179.109 342.755 177.744L352.931 183.824C352.035 186.043 350.541 187.941 348.451 189.52C346.36 191.099 343.992 192.315 341.347 193.168C338.701 193.979 336.077 194.384 333.475 194.384C330.104 194.384 327.011 193.723 324.195 192.4C321.421 191.035 319.011 189.243 316.963 187.024C314.957 184.763 313.4 182.245 312.291 179.472C311.181 176.656 310.627 173.797 310.627 170.896Z" fill="#FF8A00"/>
<path d="M420 172C420 243.797 361.797 302 290 302C218.203 302 160 243.797 160 172C160 100.203 218.203 42 290 42C361.797 42 420 100.203 420 172ZM174.574 172C174.574 235.748 226.252 287.426 290 287.426C353.748 287.426 405.426 235.748 405.426 172C405.426 108.252 353.748 56.5737 290 56.5737C226.252 56.5737 174.574 108.252 174.574 172Z" fill="#FF8A00"/>
</svg>
